<svg xmlns="http://www.w3.org/2000/svg" width="41.225" height="37.825" viewBox="0 0 41.225 37.825"><defs><style>.a{fill:none;}.b{fill:#ef0000;}.c{fill:#a60d0d;}.d,.e{stroke:none;}.e{fill:#fff;}</style></defs><g transform="translate(-13 -106.175)"><g transform="translate(13 106.175)"><path class="a" d="M0,0H37.825V37.825H0Z"/><path class="b" d="M4,24.064a4.706,4.706,0,0,0,1.576,3.5v2.805a1.581,1.581,0,0,0,1.576,1.576H8.728A1.581,1.581,0,0,0,10.3,30.369V28.793H22.912v1.576a1.581,1.581,0,0,0,1.576,1.576h1.576a1.581,1.581,0,0,0,1.576-1.576V27.563a4.706,4.706,0,0,0,1.576-3.5V8.3c0-5.516-5.642-6.3-12.608-6.3S4,2.788,4,8.3ZM9.516,25.64a2.364,2.364,0,1,1,2.364-2.364A2.361,2.361,0,0,1,9.516,25.64Zm14.184,0a2.364,2.364,0,1,1,2.364-2.364A2.361,2.361,0,0,1,23.7,25.64Zm2.364-9.456H7.152V8.3H26.064Z" transform="translate(2.304 1.152)"/></g><g class="c" transform="translate(32.586 114.424)"><path class="d" d="M 12.81974220275879 25.08806991577148 L 12.44869232177734 24.67726135253906 C 12.4289026260376 24.65536117553711 10.44750213623047 22.45318984985352 8.495391845703125 19.55988121032715 C 5.844242095947266 15.6305103302002 4.500002384185791 12.35345077514648 4.500002384185791 9.819740295410156 C 4.500002384185791 7.595290660858154 5.36481237411499 5.505430698394775 6.935122013092041 3.935120582580566 C 8.50543212890625 2.364810466766357 10.59529209136963 1.500000596046448 12.81974220275879 1.500000596046448 C 15.04419231414795 1.500000596046448 17.13405227661133 2.364810466766357 18.7043628692627 3.935120582580566 C 20.27467155456543 5.505430698394775 21.13948249816895 7.595290660858154 21.13948249816895 9.819740295410156 C 21.13948249816895 12.35345077514648 19.79524230957031 15.6305103302002 17.14409255981445 19.55988121032715 C 15.19198226928711 22.45318984985352 13.21058177947998 24.65536117553711 13.19079208374023 24.67726135253906 L 12.81974220275879 25.08806991577148 Z M 12.81974220275879 7.526980400085449 C 11.55551242828369 7.526980400085449 10.52698230743408 8.555510520935059 10.52698230743408 9.819740295410156 C 10.52698230743408 11.08398056030273 11.55551242828369 12.11251068115234 12.81974220275879 12.11251068115234 C 14.08398246765137 12.11251068115234 15.11251258850098 11.08398056030273 15.11251258850098 9.819740295410156 C 15.11251258850098 8.555510520935059 14.08398246765137 7.526980400085449 12.81974220275879 7.526980400085449 Z"/><path class="e" d="M 12.81974220275879 2 C 8.496541976928711 2 5.000001907348633 5.496540069580078 5.000001907348633 9.819740295410156 C 5.000001907348633 15.68455028533936 12.81974220275879 24.34212112426758 12.81974220275879 24.34212112426758 C 12.81974220275879 24.34212112426758 20.63948249816895 15.68455028533936 20.63948249816895 9.819740295410156 C 20.63948249816895 5.496540069580078 17.14294242858887 2 12.81974220275879 2 M 12.81974220275879 12.61251068115234 C 11.27813243865967 12.61251068115234 10.02698230743408 11.36135101318359 10.02698230743408 9.819740295410156 C 10.02698230743408 8.278141021728516 11.27813243865967 7.026981353759766 12.81974220275879 7.026981353759766 C 14.36135196685791 7.026981353759766 15.61251258850098 8.278141021728516 15.61251258850098 9.819740295410156 C 15.61251258850098 11.36135101318359 14.36135196685791 12.61251068115234 12.81974220275879 12.61251068115234 M 12.81974220275879 1 C 15.17774200439453 1 17.39317321777344 1.916820526123047 19.05792236328125 3.581560134887695 C 20.7226619720459 5.246311187744141 21.63948249816895 7.461740493774414 21.63948249816895 9.819740295410156 C 21.63948249816895 15.99827098846436 13.89166259765625 24.64725112915039 13.56184196472168 25.01241111755371 L 12.81974220275879 25.83402061462402 L 12.0776424407959 25.01241111755371 C 11.74782180786133 24.64725112915039 4.000001907348633 15.99827098846436 4.000001907348633 9.819740295410156 C 4.000001907348633 7.461740493774414 4.91682243347168 5.246311187744141 6.581562042236328 3.581560134887695 C 8.246313095092773 1.916820526123047 10.46174240112305 1 12.81974220275879 1 Z M 12.81974220275879 11.61251068115234 C 13.80828189849854 11.61251068115234 14.61251258850098 10.80828094482422 14.61251258850098 9.819740295410156 C 14.61251258850098 8.831211090087891 13.80828189849854 8.026981353759766 12.81974220275879 8.026981353759766 C 11.83121204376221 8.026981353759766 11.02698230743408 8.831211090087891 11.02698230743408 9.819740295410156 C 11.02698230743408 10.80828094482422 11.83121204376221 11.61251068115234 12.81974220275879 11.61251068115234 Z"/></g></g></svg>