<svg xmlns="http://www.w3.org/2000/svg" width="130" height="130" viewBox="0 0 130 130"><defs><style>.a{fill:rgba(161,0,255,0.8);}.b,.c{stroke:none;}.c{fill:#707070;}</style></defs><g class="a"><path class="b" d="M 65 129.5 C 56.29233169555664 129.5 47.84540176391602 127.7947006225586 39.89384841918945 124.4314651489258 C 36.07206726074219 122.8150024414063 32.38591766357422 120.8142166137695 28.93778419494629 118.4847030639648 C 25.52230072021484 116.1772537231445 22.31049919128418 113.5272674560547 19.39161682128906 110.6083831787109 C 16.47273254394531 107.6894989013672 13.82275009155273 104.4776992797852 11.51529979705811 101.0622177124023 C 9.185783386230469 97.61408233642578 7.184999942779541 93.92793273925781 5.568533420562744 90.10614776611328 C 2.205300092697144 82.15460205078125 0.5 73.70766448974609 0.5 65 C 0.5 56.29233169555664 2.205300092697144 47.84540176391602 5.568533420562744 39.89384841918945 C 7.184999942779541 36.07206726074219 9.185783386230469 32.38591766357422 11.51529979705811 28.93778419494629 C 13.82275009155273 25.52230072021484 16.47273254394531 22.31049919128418 19.39161682128906 19.39161682128906 C 22.31049919128418 16.47273254394531 25.52230072021484 13.82275009155273 28.93778419494629 11.51529979705811 C 32.38591766357422 9.185783386230469 36.07206726074219 7.184999942779541 39.89384841918945 5.568533420562744 C 47.84540176391602 2.205300092697144 56.29233169555664 0.5 65 0.5 C 73.70766448974609 0.5 82.15460205078125 2.205300092697144 90.10614776611328 5.568533420562744 C 93.92793273925781 7.184999942779541 97.61408233642578 9.185783386230469 101.0622177124023 11.51529979705811 C 104.4776992797852 13.82275009155273 107.6894989013672 16.47273254394531 110.6083831787109 19.39161682128906 C 113.5272674560547 22.31049919128418 116.1772537231445 25.52230072021484 118.4847030639648 28.93778419494629 C 120.8142166137695 32.38591766357422 122.8150024414063 36.07206726074219 124.4314651489258 39.89384841918945 C 127.7947006225586 47.84540176391602 129.5 56.29233169555664 129.5 65 C 129.5 73.70766448974609 127.7947006225586 82.15460205078125 124.4314651489258 90.10614776611328 C 122.8150024414063 93.92793273925781 120.8142166137695 97.61408233642578 118.4847030639648 101.0622177124023 C 116.1772537231445 104.4776992797852 113.5272674560547 107.6894989013672 110.6083831787109 110.6083831787109 C 107.6894989013672 113.5272674560547 104.4776992797852 116.1772537231445 101.0622177124023 118.4847030639648 C 97.61408233642578 120.8142166137695 93.92793273925781 122.8150024414063 90.10614776611328 124.4314651489258 C 82.15460205078125 127.7947006225586 73.70766448974609 129.5 65 129.5 Z"/><path class="c" d="M 65 1 C 56.359619140625 1 47.97821807861328 2.6920166015625 40.08861541748047 6.029029846191406 C 36.29658508300781 7.6329345703125 32.63906860351563 9.6181640625 29.21769714355469 11.92960357666016 C 25.82856750488281 14.21925354003906 22.64154815673828 16.84878540039063 19.74516296386719 19.74516296386719 C 16.84878540039063 22.64154815673828 14.21925354003906 25.82856750488281 11.92960357666016 29.21769714355469 C 9.6181640625 32.63906860351563 7.6329345703125 36.29658508300781 6.029029846191406 40.08861541748047 C 2.6920166015625 47.97821807861328 1 56.359619140625 1 65 C 1 73.640380859375 2.6920166015625 82.02178192138672 6.029029846191406 89.91138458251953 C 7.6329345703125 93.70341491699219 9.6181640625 97.36093139648438 11.92960357666016 100.7823028564453 C 14.21925354003906 104.1714324951172 16.84878540039063 107.3584518432617 19.74516296386719 110.2548370361328 C 22.64154815673828 113.1512145996094 25.82856750488281 115.7807464599609 29.21769714355469 118.0704040527344 C 32.63906860351563 120.3818359375 36.29658508300781 122.3670654296875 40.08861541748047 123.9709701538086 C 47.97821807861328 127.3079833984375 56.359619140625 129 65 129 C 73.640380859375 129 82.02178192138672 127.3079833984375 89.91138458251953 123.9709701538086 C 93.70341491699219 122.3670654296875 97.36093139648438 120.3818359375 100.7823028564453 118.0704040527344 C 104.1714324951172 115.7807464599609 107.3584518432617 113.1512145996094 110.2548370361328 110.2548370361328 C 113.1512145996094 107.3584518432617 115.7807464599609 104.1714324951172 118.0704040527344 100.7823028564453 C 120.3818359375 97.36093139648438 122.3670654296875 93.70341491699219 123.9709701538086 89.91138458251953 C 127.3079833984375 82.02178192138672 129 73.640380859375 129 65 C 129 56.359619140625 127.3079833984375 47.97821807861328 123.9709701538086 40.08861541748047 C 122.3670654296875 36.29658508300781 120.3818359375 32.63906860351563 118.0704040527344 29.21769714355469 C 115.7807464599609 25.82856750488281 113.1512145996094 22.64154815673828 110.2548370361328 19.74516296386719 C 107.3584518432617 16.84878540039063 104.1714324951172 14.21925354003906 100.7823028564453 11.92960357666016 C 97.36093139648438 9.6181640625 93.70341491699219 7.6329345703125 89.91138458251953 6.029029846191406 C 82.02178192138672 2.6920166015625 73.640380859375 1 65 1 M 65 0 C 100.8984985351563 0 130 29.10150146484375 130 65 C 130 100.8984985351563 100.8984985351563 130 65 130 C 29.10150146484375 130 0 100.8984985351563 0 65 C 0 29.10150146484375 29.10150146484375 0 65 0 Z"/></g></svg>