<svg xmlns="http://www.w3.org/2000/svg" width="52.608" height="52.608" viewBox="0 0 52.608 52.608">
  <g id="Path_1394" data-name="Path 1394" fill="#f2b300">
    <path d="M 26.3038330078125 51.10766220092773 C 22.95467376708984 51.10766220092773 19.70650291442871 50.45206451416016 16.64952278137207 49.15907287597656 C 13.69608306884766 47.90987396240234 11.04330253601074 46.12121200561523 8.764883041381836 43.8427848815918 C 6.486453056335449 41.56436157226563 4.697793006896973 38.91158294677734 3.448592901229858 35.9581413269043 C 2.155602931976318 32.90116119384766 1.500002980232239 29.65299224853516 1.500002980232239 26.3038330078125 C 1.500002980232239 22.95467376708984 2.155602931976318 19.70650291442871 3.448592901229858 16.64952278137207 C 4.697793006896973 13.69608306884766 6.486453056335449 11.04330253601074 8.764883041381836 8.764883041381836 C 11.04330253601074 6.486453056335449 13.69608306884766 4.697793006896973 16.64952278137207 3.448592901229858 C 19.70650291442871 2.155602931976318 22.95467376708984 1.500002980232239 26.3038330078125 1.500002980232239 C 29.65299224853516 1.500002980232239 32.90116119384766 2.155602931976318 35.9581413269043 3.448592901229858 C 38.91158294677734 4.697793006896973 41.56436157226563 6.486453056335449 43.8427848815918 8.764883041381836 C 46.12121200561523 11.04330253601074 47.90987396240234 13.69608306884766 49.15907287597656 16.64952278137207 C 50.45206451416016 19.70650291442871 51.10766220092773 22.95467376708984 51.10766220092773 26.3038330078125 C 51.10766220092773 29.65299224853516 50.45206451416016 32.90116119384766 49.15907287597656 35.9581413269043 C 47.90987396240234 38.91158294677734 46.12121200561523 41.56436157226563 43.8427848815918 43.8427848815918 C 41.56436157226563 46.12121200561523 38.91158294677734 47.90987396240234 35.9581413269043 49.15907287597656 C 32.90116119384766 50.45206451416016 29.65299224853516 51.10766220092773 26.3038330078125 51.10766220092773 Z" stroke="none"/>
    <path d="M 26.3038330078125 3.000003814697266 C 23.15651321411133 3.000003814697266 20.10493469238281 3.615734100341797 17.23385238647461 4.830104827880859 C 14.45920181274414 6.003673553466797 11.96668243408203 7.684383392333984 9.825534820556641 9.825534820556641 C 7.684383392333984 11.96668243408203 6.003673553466797 14.45920181274414 4.830104827880859 17.23385238647461 C 3.615734100341797 20.10493469238281 3.000003814697266 23.15651321411133 3.000003814697266 26.3038330078125 C 3.000003814697266 29.45115280151367 3.615734100341797 32.50273132324219 4.830104827880859 35.37381362915039 C 6.003673553466797 38.14846420288086 7.684383392333984 40.64097213745117 9.825534820556641 42.78212356567383 C 11.96668243408203 44.92328262329102 14.45920181274414 46.60398101806641 17.23385238647461 47.77756500244141 C 20.10493469238281 48.9919319152832 23.15651321411133 49.60766220092773 26.3038330078125 49.60766220092773 C 29.45115280151367 49.60766220092773 32.50273132324219 48.9919319152832 35.37381362915039 47.77756500244141 C 38.14846420288086 46.60398101806641 40.64097213745117 44.92328262329102 42.78212356567383 42.78212356567383 C 44.92328262329102 40.64097213745117 46.60398101806641 38.14846420288086 47.77756500244141 35.37381362915039 C 48.9919319152832 32.50273132324219 49.60766220092773 29.45115280151367 49.60766220092773 26.3038330078125 C 49.60766220092773 23.15651321411133 48.9919319152832 20.10493469238281 47.77756500244141 17.23385238647461 C 46.60398101806641 14.45920181274414 44.92328262329102 11.96668243408203 42.78212356567383 9.825534820556641 C 40.64097213745117 7.684383392333984 38.14846420288086 6.003673553466797 35.37381362915039 4.830104827880859 C 32.50273132324219 3.615734100341797 29.45115280151367 3.000003814697266 26.3038330078125 3.000003814697266 M 26.3038330078125 3.814697265625e-06 C 40.83103179931641 3.814697265625e-06 52.60766220092773 11.7766227722168 52.60766220092773 26.3038330078125 C 52.60766220092773 40.83103179931641 40.83103179931641 52.60766220092773 26.3038330078125 52.60766220092773 C 11.7766227722168 52.60766220092773 3.814697265625e-06 40.83103179931641 3.814697265625e-06 26.3038330078125 C 3.814697265625e-06 11.7766227722168 11.7766227722168 3.814697265625e-06 26.3038330078125 3.814697265625e-06 Z" stroke="none" fill="#fff"/>
  </g>
</svg>
